Coordinates
version=1
nRows=5
nColumns=40
inDegrees=yes

Units are S.I. units (second, meters, Newtons, ...)
Angles are in degrees.

endheader
time	pelvis_tilt	pelvis_list	pelvis_rotation	pelvis_tx	pelvis_ty	pelvis_tz	hip_flexion_r	hip_adduction_r	hip_rotation_r	knee_angle_r	knee_angle_r_beta	ankle_angle_r	subtalar_angle_r	mtp_angle_r	hip_flexion_l	hip_adduction_l	hip_rotation_l	knee_angle_l	knee_angle_l_beta	ankle_angle_l	subtalar_angle_l	mtp_angle_l	lumbar_extension	lumbar_bending	lumbar_rotation	arm_flex_r	arm_add_r	arm_rot_r	elbow_flex_r	pro_sup_r	wrist_flex_r	wrist_dev_r	arm_flex_l	arm_add_l	arm_rot_l	elbow_flex_l	pro_sup_l	wrist_flex_l	wrist_dev_l
     11.06500000	     -4.83687286	     -4.61021673	      8.69691518	      1.02710275	      0.91378538	      0.55347797	      2.82030716	      4.47123754	    -17.06309956	     17.14011653	     17.14011653	     19.99053564	     -8.13885205	     -1.58576817	     30.37479078	     -7.44930753	      2.44453154	     22.31726461	     22.31726461	      2.91623394	     -9.21025823	      0.28744536	     -9.43814977	      3.30656786	      3.14687130	     48.69587123	    -16.34681334	     -4.15424872	    102.14818505	     43.99635473	      0.00000000	      0.00000000	    -13.76750337	     -9.31057744	     -2.33829867	     26.78122376	     45.71991794	      0.00000000	      0.00000000
     11.08450000	     -4.95025028	     -4.46986904	      8.92250477	      1.02867966	      0.91306108	      0.54973245	      2.27294600	      4.16627782	    -17.16282853	     16.97062624	     16.97062624	     20.13307483	     -8.18225845	     -1.54949167	     30.39193390	     -7.06458475	      2.50967529	     23.16775197	     23.16775197	      2.91413540	     -9.59218956	      0.10645179	     -9.28013119	      2.97257797	      3.23041021	     49.17313731	    -16.20957685	     -4.11828063	    102.48973945	     43.99029933	      0.00000000	      0.00000000	    -13.56652301	     -9.34631456	     -2.36043118	     26.88219295	     45.72815417	      0.00000000	      0.00000000
     11.10400000	     -4.94780112	     -4.44889517	      9.09886490	      1.03039839	      0.91252119	      0.54590805	      1.61174260	      3.99287620	    -17.27669419	     16.80928354	     16.80928354	     20.24571294	     -8.07938948	     -1.52027357	     30.44052394	     -6.77672898	      2.80583245	     24.29867137	     24.29867137	      3.07894682	    -10.27971201	     -0.08780394	     -9.25362231	      2.84095178	      3.29826053	     49.55939091	    -16.04878232	     -4.06956067	    102.93551940	     43.98163506	      0.00000000	      0.00000000	    -13.25104194	     -9.33446148	     -2.41395174	     27.12012396	     45.74335270	      0.00000000	      0.00000000
     11.12350000	     -4.99277281	     -4.48652890	      9.26479653	      1.03228545	      0.91218865	      0.54187445	      0.91181088	      3.83136312	    -17.70148125	     16.49468795	     16.49468795	     20.29493404	     -7.47582747	     -1.47921326	     30.43949602	     -6.38294148	      3.64398562	     25.27459815	     25.27459815	      3.46470407	    -11.54640362	      0.38955001	     -9.19690203	      2.79037540	      3.57958243	     49.53953731	    -16.18774368	     -4.08765694	    103.98149165	     43.98115487	      0.00000000	      0.00000000	    -13.02047176	     -9.25271266	     -2.88136954	     28.22999252	     45.82563374	      0.00000000	      0.00000000
     11.14300000	     -5.03982089	     -4.43201027	      9.29403576	      1.03425795	      0.91206457	      0.53803413	      0.32951470	      3.57796506	    -17.74532760	     16.40791895	     16.40791895	     20.25114068	     -7.33758096	     -1.42531555	     30.36433494	     -6.05989876	      3.94417353	     26.18193668	     26.18193668	      3.94444900	    -12.11940190	      0.30596678	     -9.09561643	      2.60440730	      3.84253148	     49.56438334	    -16.10159048	     -4.05935955	    103.92730079	     43.98966476	      0.00000000	      0.00000000	    -12.44888783	     -9.21982513	     -3.00182628	     28.75546328	     45.85429733	      0.00000000	      0.00000000
